<svg xmlns="http://www.w3.org/2000/svg" viewBox="0 0 800 1040" fill="#000"><path d="M120.0,980.0 L120.0,947.7 L120.0,915.3 L120.0,883.0 L120.0,850.7 L120.0,818.4 L120.0,786.0 L120.0,753.7 L120.0,721.4 L120.0,689.1 L120.0,656.7 L120.0,624.4 L120.0,592.1 L120.0,559.7 L120.0,527.4 L120.0,495.1 L120.0,462.8 L120.7,430.4 L124.8,398.4 L132.6,367.0 L143.9,336.8 L158.7,308.0 L176.6,281.2 L197.6,256.6 L221.2,234.5 L247.2,215.4 L275.2,199.3 L304.9,186.6 L335.9,177.4 L367.7,171.9 L400.0,170.0 L432.3,171.9 L464.1,177.4 L495.1,186.6 L524.8,199.3 L552.8,215.4 L578.8,234.5 L602.4,256.6 L623.4,281.2 L641.3,308.0 L656.1,336.8 L667.4,367.0 L675.2,398.4 L679.3,430.4 L680.0,462.8 L680.0,495.1 L680.0,527.4 L680.0,559.7 L680.0,592.1 L680.0,624.4 L680.0,656.7 L680.0,689.1 L680.0,721.4 L680.0,753.7 L680.0,786.0 L680.0,818.4 L680.0,850.7 L680.0,883.0 L680.0,915.3 L680.0,947.7 L680.0,980.0" fill="none" stroke="#000" stroke-width="4" stroke-linecap="round"/><path d="M98.0,980.0 L98.0,946.5 L98.0,913.0 L98.0,879.6 L98.0,846.1 L98.0,812.6 L98.0,779.1 L98.0,745.6 L98.0,712.2 L98.0,678.7 L98.0,645.2 L98.0,611.7 L98.0,578.2 L98.0,544.8 L98.0,511.3 L98.0,477.8 L98.1,444.3 L100.5,411.0 L106.7,378.1 L116.4,346.1 L129.7,315.3 L146.2,286.3 L165.9,259.2 L188.5,234.5 L213.6,212.4 L241.0,193.2 L270.4,177.2 L301.4,164.5 L333.6,155.4 L366.6,149.9 L400.0,148.0 L433.4,149.9 L466.4,155.4 L498.6,164.5 L529.6,177.2 L559.0,193.2 L586.4,212.4 L611.5,234.5 L634.1,259.2 L653.8,286.3 L670.3,315.3 L683.6,346.1 L693.3,378.1 L699.5,411.0 L701.9,444.3 L702.0,477.8 L702.0,511.3 L702.0,544.8 L702.0,578.2 L702.0,611.7 L702.0,645.2 L702.0,678.7 L702.0,712.2 L702.0,745.6 L702.0,779.1 L702.0,812.6 L702.0,846.1 L702.0,879.6 L702.0,913.0 L702.0,946.5 L702.0,980.0" fill="none" stroke="#000" stroke-width="4" stroke-linecap="round"/><path transform="translate(116.7,969.2) rotate(227.4)" d="M0,0 C20.3,-22.2 20.3,-51.9 0,-74.2 C-20.3,-51.9 -20.3,-22.2 0,0Z" fill-opacity="0.88"/><path transform="translate(124.5,913.5) rotate(328.8)" d="M0,0 C24.0,-17.8 24.0,-41.6 0,-59.4 C-24.0,-41.6 -24.0,-17.8 0,0Z" fill-opacity="0.88"/><path transform="translate(95.7,843.2) rotate(195.3)" d="M0,0 C20.3,-16.8 20.3,-39.2 0,-56.0 C-20.3,-39.2 -20.3,-16.8 0,0Z" fill-opacity="0.88"/><path transform="translate(106.7,782.4) rotate(333.6)" d="M0,0 C21.6,-15.8 21.6,-36.8 0,-52.6 C-21.6,-36.8 -21.6,-15.8 0,0Z" fill-opacity="0.88"/><path transform="translate(114.5,726.0) rotate(194.8)" d="M0,0 C21.2,-20.7 21.2,-48.2 0,-68.9 C-21.2,-48.2 -21.2,-20.7 0,0Z" fill-opacity="0.88"/><path transform="translate(100.0,668.7) rotate(347.4)" d="M0,0 C18.4,-24.6 18.4,-57.4 0,-82.0 C-18.4,-57.4 -18.4,-24.6 0,0Z" fill-opacity="0.88"/><path transform="translate(94.2,627.2) rotate(212.6)" d="M0,0 C23.7,-17.6 23.7,-41.1 0,-58.7 C-23.7,-41.1 -23.7,-17.6 0,0Z" fill-opacity="0.88"/><path transform="translate(103.1,556.9) rotate(333.4)" d="M0,0 C17.5,-19.6 17.5,-45.8 0,-65.4 C-17.5,-45.8 -17.5,-19.6 0,0Z" fill-opacity="0.88"/><path transform="translate(104.6,482.1) rotate(190.4)" d="M0,0 C22.6,-26.1 22.6,-61.0 0,-87.2 C-22.6,-61.0 -22.6,-26.1 0,0Z" fill-opacity="0.88"/><path transform="translate(103.0,432.6) rotate(417.1)" d="M0,0 C23.0,-26.6 23.0,-62.0 0,-88.6 C-23.0,-62.0 -23.0,-26.6 0,0Z" fill-opacity="0.88"/><path transform="translate(112.8,374.9) rotate(300.7)" d="M0,0 C16.8,-21.9 16.8,-51.1 0,-72.9 C-16.8,-51.1 -16.8,-21.9 0,0Z" fill-opacity="0.88"/><path transform="translate(118.5,318.1) rotate(383.4)" d="M0,0 C18.1,-24.6 18.1,-57.4 0,-82.0 C-18.1,-57.4 -18.1,-24.6 0,0Z" fill-opacity="0.88"/><path transform="translate(168.9,257.3) rotate(282.3)" d="M0,0 C20.1,-15.5 20.1,-36.2 0,-51.8 C-20.1,-36.2 -20.1,-15.5 0,0Z" fill-opacity="0.88"/><path transform="translate(208.1,226.2) rotate(389.7)" d="M0,0 C19.1,-26.8 19.1,-62.5 0,-89.2 C-19.1,-62.5 -19.1,-26.8 0,0Z" fill-opacity="0.88"/><path transform="translate(252.4,208.0) rotate(244.8)" d="M0,0 C16.0,-15.4 16.0,-35.9 0,-51.3 C-16.0,-35.9 -16.0,-15.4 0,0Z" fill-opacity="0.88"/><path transform="translate(288.1,185.7) rotate(370.5)" d="M0,0 C17.1,-25.4 17.1,-59.3 0,-84.7 C-17.1,-59.3 -17.1,-25.4 0,0Z" fill-opacity="0.88"/><path transform="translate(354.9,158.2) rotate(214.6)" d="M0,0 C20.4,-21.2 20.4,-49.6 0,-70.8 C-20.4,-49.6 -20.4,-21.2 0,0Z" fill-opacity="0.88"/><path transform="translate(427.7,146.5) rotate(333.4)" d="M0,0 C18.3,-21.1 18.3,-49.2 0,-70.3 C-18.3,-49.2 -18.3,-21.1 0,0Z" fill-opacity="0.88"/><path transform="translate(484.8,171.0) rotate(212.1)" d="M0,0 C19.5,-21.3 19.5,-49.6 0,-70.8 C-19.5,-49.6 -19.5,-21.3 0,0Z" fill-opacity="0.88"/><path transform="translate(514.8,170.5) rotate(289.0)" d="M0,0 C20.3,-22.4 20.3,-52.2 0,-74.6 C-20.3,-52.2 -20.3,-22.4 0,0Z" fill-opacity="0.88"/><path transform="translate(582.1,213.8) rotate(162.6)" d="M0,0 C21.1,-19.2 21.1,-44.9 0,-64.1 C-21.1,-44.9 -21.1,-19.2 0,0Z" fill-opacity="0.88"/><path transform="translate(615.6,271.4) rotate(276.8)" d="M0,0 C16.5,-26.6 16.5,-62.0 0,-88.5 C-16.5,-62.0 -16.5,-26.6 0,0Z" fill-opacity="0.88"/><path transform="translate(652.3,298.7) rotate(147.6)" d="M0,0 C17.7,-18.8 17.7,-43.8 0,-62.5 C-17.7,-43.8 -17.7,-18.8 0,0Z" fill-opacity="0.88"/><path transform="translate(675.1,364.1) rotate(264.9)" d="M0,0 C19.7,-15.3 19.7,-35.8 0,-51.1 C-19.7,-35.8 -19.7,-15.3 0,0Z" fill-opacity="0.88"/><path transform="translate(685.0,425.6) rotate(126.9)" d="M0,0 C15.9,-17.9 15.9,-41.7 0,-59.5 C-15.9,-41.7 -15.9,-17.9 0,0Z" fill-opacity="0.88"/><path transform="translate(699.4,467.9) rotate(147.5)" d="M0,0 C22.3,-19.0 22.3,-44.3 0,-63.4 C-22.3,-44.3 -22.3,-19.0 0,0Z" fill-opacity="0.88"/><path transform="translate(704.9,523.5) rotate(32.0)" d="M0,0 C22.8,-22.8 22.8,-53.2 0,-76.0 C-22.8,-53.2 -22.8,-22.8 0,0Z" fill-opacity="0.88"/><path transform="translate(682.9,593.2) rotate(163.5)" d="M0,0 C22.1,-17.3 22.1,-40.3 0,-57.6 C-22.1,-40.3 -22.1,-17.3 0,0Z" fill-opacity="0.88"/><path transform="translate(681.4,656.8) rotate(36.2)" d="M0,0 C22.1,-22.7 22.1,-53.0 0,-75.7 C-22.1,-53.0 -22.1,-22.7 0,0Z" fill-opacity="0.88"/><path transform="translate(679.5,714.3) rotate(146.7)" d="M0,0 C17.5,-18.3 17.5,-42.6 0,-60.8 C-17.5,-42.6 -17.5,-18.3 0,0Z" fill-opacity="0.88"/><path transform="translate(689.7,773.5) rotate(12.3)" d="M0,0 C14.0,-16.9 14.0,-39.4 0,-56.2 C-14.0,-39.4 -14.0,-16.9 0,0Z" fill-opacity="0.88"/><path transform="translate(705.8,812.4) rotate(138.9)" d="M0,0 C23.3,-26.4 23.3,-61.6 0,-88.0 C-23.3,-61.6 -23.3,-26.4 0,0Z" fill-opacity="0.88"/><path transform="translate(701.1,880.3) rotate(36.4)" d="M0,0 C16.9,-21.2 16.9,-49.5 0,-70.8 C-16.9,-49.5 -16.9,-21.2 0,0Z" fill-opacity="0.88"/><path transform="translate(683.0,939.6) rotate(131.8)" d="M0,0 C22.1,-18.4 22.1,-43.0 0,-61.5 C-22.1,-43.0 -22.1,-18.4 0,0Z" fill-opacity="0.88"/><circle transform="translate(97.4,946.5) rotate(64.6) translate(0,-17.9)" r="13.7" fill-opacity=".22" stroke="#000" stroke-width="1.7"/><circle transform="translate(97.4,946.5) rotate(136.6) translate(0,-17.9)" r="13.7" fill-opacity=".22" stroke="#000" stroke-width="1.7"/><circle transform="translate(97.4,946.5) rotate(208.6) translate(0,-17.9)" r="13.7" fill-opacity=".22" stroke="#000" stroke-width="1.7"/><circle transform="translate(97.4,946.5) rotate(280.6) translate(0,-17.9)" r="13.7" fill-opacity=".22" stroke="#000" stroke-width="1.7"/><circle transform="translate(97.4,946.5) rotate(352.6) translate(0,-17.9)" r="13.7" fill-opacity=".22" stroke="#000" stroke-width="1.7"/><circle cx="97.4" cy="946.5" r="5.2" fill-opacity=".4"/><circle cx="101.9" cy="955.9" r="1.6"/><circle cx="91.5" cy="955.1" r="1.6"/><circle cx="87.0" cy="945.7" r="1.6"/><circle cx="92.9" cy="937.1" r="1.6"/><circle cx="103.3" cy="938.0" r="1.6"/><circle cx="107.8" cy="947.4" r="1.6"/><ellipse transform="translate(97.5,835.6) rotate(53.7) translate(0,-9.9)" rx="2.4" ry="9.9" fill-opacity="0.256" stroke="#000" stroke-width="1.7" stroke-opacity=".95"/><ellipse transform="translate(97.5,835.6) rotate(83.7) translate(0,-9.9)" rx="2.4" ry="9.9" fill-opacity="0.256" stroke="#000" stroke-width="1.7" stroke-opacity=".95"/><ellipse transform="translate(97.5,835.6) rotate(113.7) translate(0,-9.9)" rx="2.4" ry="9.9" fill-opacity="0.256" stroke="#000" stroke-width="1.7" stroke-opacity=".95"/><ellipse transform="translate(97.5,835.6) rotate(143.7) translate(0,-9.9)" rx="2.4" ry="9.9" fill-opacity="0.256" stroke="#000" stroke-width="1.7" stroke-opacity=".95"/><ellipse transform="translate(97.5,835.6) rotate(173.7) translate(0,-9.9)" rx="2.4" ry="9.9" fill-opacity="0.256" stroke="#000" stroke-width="1.7" stroke-opacity=".95"/><ellipse transform="translate(97.5,835.6) rotate(203.7) translate(0,-9.9)" rx="2.4" ry="9.9" fill-opacity="0.256" stroke="#000" stroke-width="1.7" stroke-opacity=".95"/><ellipse transform="translate(97.5,835.6) rotate(233.7) translate(0,-9.9)" rx="2.4" ry="9.9" fill-opacity="0.256" stroke="#000" stroke-width="1.7" stroke-opacity=".95"/><ellipse transform="translate(97.5,835.6) rotate(263.7) translate(0,-9.9)" rx="2.4" ry="9.9" fill-opacity="0.256" stroke="#000" stroke-width="1.7" stroke-opacity=".95"/><ellipse transform="translate(97.5,835.6) rotate(293.7) translate(0,-9.9)" rx="2.4" ry="9.9" fill-opacity="0.256" stroke="#000" stroke-width="1.7" stroke-opacity=".95"/><ellipse transform="translate(97.5,835.6) rotate(323.7) translate(0,-9.9)" rx="2.4" ry="9.9" fill-opacity="0.256" stroke="#000" stroke-width="1.7" stroke-opacity=".95"/><ellipse transform="translate(97.5,835.6) rotate(353.7) translate(0,-9.9)" rx="2.4" ry="9.9" fill-opacity="0.256" stroke="#000" stroke-width="1.7" stroke-opacity=".95"/><ellipse transform="translate(97.5,835.6) rotate(383.7) translate(0,-9.9)" rx="2.4" ry="9.9" fill-opacity="0.256" stroke="#000" stroke-width="1.7" stroke-opacity=".95"/><circle cx="97.5" cy="835.6" r="4.0" fill-opacity=".55"/><ellipse transform="translate(115.7,729.2) rotate(37.8) translate(0,-14.4)" rx="3.5" ry="14.4" fill-opacity="0.256" stroke="#000" stroke-width="1.7" stroke-opacity=".95"/><ellipse transform="translate(115.7,729.2) rotate(67.8) translate(0,-14.4)" rx="3.5" ry="14.4" fill-opacity="0.256" stroke="#000" stroke-width="1.7" stroke-opacity=".95"/><ellipse transform="translate(115.7,729.2) rotate(97.8) translate(0,-14.4)" rx="3.5" ry="14.4" fill-opacity="0.256" stroke="#000" stroke-width="1.7" stroke-opacity=".95"/><ellipse transform="translate(115.7,729.2) rotate(127.8) translate(0,-14.4)" rx="3.5" ry="14.4" fill-opacity="0.256" stroke="#000" stroke-width="1.7" stroke-opacity=".95"/><ellipse transform="translate(115.7,729.2) rotate(157.8) translate(0,-14.4)" rx="3.5" ry="14.4" fill-opacity="0.256" stroke="#000" stroke-width="1.7" stroke-opacity=".95"/><ellipse transform="translate(115.7,729.2) rotate(187.8) translate(0,-14.4)" rx="3.5" ry="14.4" fill-opacity="0.256" stroke="#000" stroke-width="1.7" stroke-opacity=".95"/><ellipse transform="translate(115.7,729.2) rotate(217.8) translate(0,-14.4)" rx="3.5" ry="14.4" fill-opacity="0.256" stroke="#000" stroke-width="1.7" stroke-opacity=".95"/><ellipse transform="translate(115.7,729.2) rotate(247.8) translate(0,-14.4)" rx="3.5" ry="14.4" fill-opacity="0.256" stroke="#000" stroke-width="1.7" stroke-opacity=".95"/><ellipse transform="translate(115.7,729.2) rotate(277.8) translate(0,-14.4)" rx="3.5" ry="14.4" fill-opacity="0.256" stroke="#000" stroke-width="1.7" stroke-opacity=".95"/><ellipse transform="translate(115.7,729.2) rotate(307.8) translate(0,-14.4)" rx="3.5" ry="14.4" fill-opacity="0.256" stroke="#000" stroke-width="1.7" stroke-opacity=".95"/><ellipse transform="translate(115.7,729.2) rotate(337.8) translate(0,-14.4)" rx="3.5" ry="14.4" fill-opacity="0.256" stroke="#000" stroke-width="1.7" stroke-opacity=".95"/><ellipse transform="translate(115.7,729.2) rotate(367.8) translate(0,-14.4)" rx="3.5" ry="14.4" fill-opacity="0.256" stroke="#000" stroke-width="1.7" stroke-opacity=".95"/><circle cx="115.7" cy="729.2" r="5.8" fill-opacity=".55"/><circle transform="translate(109.7,611.9) rotate(24.6) translate(0,-15.5)" r="11.8" fill-opacity=".22" stroke="#000" stroke-width="1.7"/><circle transform="translate(109.7,611.9) rotate(96.6) translate(0,-15.5)" r="11.8" fill-opacity=".22" stroke="#000" stroke-width="1.7"/><circle transform="translate(109.7,611.9) rotate(168.6) translate(0,-15.5)" r="11.8" fill-opacity=".22" stroke="#000" stroke-width="1.7"/><circle transform="translate(109.7,611.9) rotate(240.6) translate(0,-15.5)" r="11.8" fill-opacity=".22" stroke="#000" stroke-width="1.7"/><circle transform="translate(109.7,611.9) rotate(312.6) translate(0,-15.5)" r="11.8" fill-opacity=".22" stroke="#000" stroke-width="1.7"/><circle cx="109.7" cy="611.9" r="4.5" fill-opacity=".4"/><circle cx="117.9" cy="615.7" r="1.4"/><circle cx="110.5" cy="620.9" r="1.4"/><circle cx="102.3" cy="617.1" r="1.4"/><circle cx="101.5" cy="608.2" r="1.4"/><circle cx="108.8" cy="602.9" r="1.4"/><circle cx="117.0" cy="606.7" r="1.4"/><ellipse transform="translate(113.7,502.6) rotate(56.3) translate(0,-13.1)" rx="3.2" ry="13.1" fill-opacity="0.256" stroke="#000" stroke-width="1.7" stroke-opacity=".95"/><ellipse transform="translate(113.7,502.6) rotate(86.3) translate(0,-13.1)" rx="3.2" ry="13.1" fill-opacity="0.256" stroke="#000" stroke-width="1.7" stroke-opacity=".95"/><ellipse transform="translate(113.7,502.6) rotate(116.3) translate(0,-13.1)" rx="3.2" ry="13.1" fill-opacity="0.256" stroke="#000" stroke-width="1.7" stroke-opacity=".95"/><ellipse transform="translate(113.7,502.6) rotate(146.3) translate(0,-13.1)" rx="3.2" ry="13.1" fill-opacity="0.256" stroke="#000" stroke-width="1.7" stroke-opacity=".95"/><ellipse transform="translate(113.7,502.6) rotate(176.3) translate(0,-13.1)" rx="3.2" ry="13.1" fill-opacity="0.256" stroke="#000" stroke-width="1.7" stroke-opacity=".95"/><ellipse transform="translate(113.7,502.6) rotate(206.3) translate(0,-13.1)" rx="3.2" ry="13.1" fill-opacity="0.256" stroke="#000" stroke-width="1.7" stroke-opacity=".95"/><ellipse transform="translate(113.7,502.6) rotate(236.3) translate(0,-13.1)" rx="3.2" ry="13.1" fill-opacity="0.256" stroke="#000" stroke-width="1.7" stroke-opacity=".95"/><ellipse transform="translate(113.7,502.6) rotate(266.3) translate(0,-13.1)" rx="3.2" ry="13.1" fill-opacity="0.256" stroke="#000" stroke-width="1.7" stroke-opacity=".95"/><ellipse transform="translate(113.7,502.6) rotate(296.3) translate(0,-13.1)" rx="3.2" ry="13.1" fill-opacity="0.256" stroke="#000" stroke-width="1.7" stroke-opacity=".95"/><ellipse transform="translate(113.7,502.6) rotate(326.3) translate(0,-13.1)" rx="3.2" ry="13.1" fill-opacity="0.256" stroke="#000" stroke-width="1.7" stroke-opacity=".95"/><ellipse transform="translate(113.7,502.6) rotate(356.3) translate(0,-13.1)" rx="3.2" ry="13.1" fill-opacity="0.256" stroke="#000" stroke-width="1.7" stroke-opacity=".95"/><ellipse transform="translate(113.7,502.6) rotate(386.3) translate(0,-13.1)" rx="3.2" ry="13.1" fill-opacity="0.256" stroke="#000" stroke-width="1.7" stroke-opacity=".95"/><circle cx="113.7" cy="502.6" r="5.3" fill-opacity=".55"/><ellipse transform="translate(115.6,402.7) rotate(58.8) translate(0,-13.5)" rx="3.3" ry="13.5" fill-opacity="0.256" stroke="#000" stroke-width="1.7" stroke-opacity=".95"/><ellipse transform="translate(115.6,402.7) rotate(88.8) translate(0,-13.5)" rx="3.3" ry="13.5" fill-opacity="0.256" stroke="#000" stroke-width="1.7" stroke-opacity=".95"/><ellipse transform="translate(115.6,402.7) rotate(118.8) translate(0,-13.5)" rx="3.3" ry="13.5" fill-opacity="0.256" stroke="#000" stroke-width="1.7" stroke-opacity=".95"/><ellipse transform="translate(115.6,402.7) rotate(148.8) translate(0,-13.5)" rx="3.3" ry="13.5" fill-opacity="0.256" stroke="#000" stroke-width="1.7" stroke-opacity=".95"/><ellipse transform="translate(115.6,402.7) rotate(178.8) translate(0,-13.5)" rx="3.3" ry="13.5" fill-opacity="0.256" stroke="#000" stroke-width="1.7" stroke-opacity=".95"/><ellipse transform="translate(115.6,402.7) rotate(208.8) translate(0,-13.5)" rx="3.3" ry="13.5" fill-opacity="0.256" stroke="#000" stroke-width="1.7" stroke-opacity=".95"/><ellipse transform="translate(115.6,402.7) rotate(238.8) translate(0,-13.5)" rx="3.3" ry="13.5" fill-opacity="0.256" stroke="#000" stroke-width="1.7" stroke-opacity=".95"/><ellipse transform="translate(115.6,402.7) rotate(268.8) translate(0,-13.5)" rx="3.3" ry="13.5" fill-opacity="0.256" stroke="#000" stroke-width="1.7" stroke-opacity=".95"/><ellipse transform="translate(115.6,402.7) rotate(298.8) translate(0,-13.5)" rx="3.3" ry="13.5" fill-opacity="0.256" stroke="#000" stroke-width="1.7" stroke-opacity=".95"/><ellipse transform="translate(115.6,402.7) rotate(328.8) translate(0,-13.5)" rx="3.3" ry="13.5" fill-opacity="0.256" stroke="#000" stroke-width="1.7" stroke-opacity=".95"/><ellipse transform="translate(115.6,402.7) rotate(358.8) translate(0,-13.5)" rx="3.3" ry="13.5" fill-opacity="0.256" stroke="#000" stroke-width="1.7" stroke-opacity=".95"/><ellipse transform="translate(115.6,402.7) rotate(388.8) translate(0,-13.5)" rx="3.3" ry="13.5" fill-opacity="0.256" stroke="#000" stroke-width="1.7" stroke-opacity=".95"/><circle cx="115.6" cy="402.7" r="5.4" fill-opacity=".55"/><circle transform="translate(153.3,289.3) rotate(58.0) translate(0,-17.9)" r="13.7" fill-opacity=".22" stroke="#000" stroke-width="1.7"/><circle transform="translate(153.3,289.3) rotate(130.0) translate(0,-17.9)" r="13.7" fill-opacity=".22" stroke="#000" stroke-width="1.7"/><circle transform="translate(153.3,289.3) rotate(202.0) translate(0,-17.9)" r="13.7" fill-opacity=".22" stroke="#000" stroke-width="1.7"/><circle transform="translate(153.3,289.3) rotate(274.0) translate(0,-17.9)" r="13.7" fill-opacity=".22" stroke="#000" stroke-width="1.7"/><circle transform="translate(153.3,289.3) rotate(346.0) translate(0,-17.9)" r="13.7" fill-opacity=".22" stroke="#000" stroke-width="1.7"/><circle cx="153.3" cy="289.3" r="5.2" fill-opacity=".4"/><circle cx="158.8" cy="298.2" r="1.6"/><circle cx="148.4" cy="298.5" r="1.6"/><circle cx="142.9" cy="289.7" r="1.6"/><circle cx="147.7" cy="280.5" r="1.6"/><circle cx="158.1" cy="280.2" r="1.6"/><circle cx="163.6" cy="289.0" r="1.6"/><ellipse transform="translate(226.1,225.2) rotate(62.1) translate(0,-14.2)" rx="3.4" ry="14.2" fill-opacity="0.256" stroke="#000" stroke-width="1.7" stroke-opacity=".95"/><ellipse transform="translate(226.1,225.2) rotate(92.1) translate(0,-14.2)" rx="3.4" ry="14.2" fill-opacity="0.256" stroke="#000" stroke-width="1.7" stroke-opacity=".95"/><ellipse transform="translate(226.1,225.2) rotate(122.1) translate(0,-14.2)" rx="3.4" ry="14.2" fill-opacity="0.256" stroke="#000" stroke-width="1.7" stroke-opacity=".95"/><ellipse transform="translate(226.1,225.2) rotate(152.1) translate(0,-14.2)" rx="3.4" ry="14.2" fill-opacity="0.256" stroke="#000" stroke-width="1.7" stroke-opacity=".95"/><ellipse transform="translate(226.1,225.2) rotate(182.1) translate(0,-14.2)" rx="3.4" ry="14.2" fill-opacity="0.256" stroke="#000" stroke-width="1.7" stroke-opacity=".95"/><ellipse transform="translate(226.1,225.2) rotate(212.1) translate(0,-14.2)" rx="3.4" ry="14.2" fill-opacity="0.256" stroke="#000" stroke-width="1.7" stroke-opacity=".95"/><ellipse transform="translate(226.1,225.2) rotate(242.1) translate(0,-14.2)" rx="3.4" ry="14.2" fill-opacity="0.256" stroke="#000" stroke-width="1.7" stroke-opacity=".95"/><ellipse transform="translate(226.1,225.2) rotate(272.1) translate(0,-14.2)" rx="3.4" ry="14.2" fill-opacity="0.256" stroke="#000" stroke-width="1.7" stroke-opacity=".95"/><ellipse transform="translate(226.1,225.2) rotate(302.1) translate(0,-14.2)" rx="3.4" ry="14.2" fill-opacity="0.256" stroke="#000" stroke-width="1.7" stroke-opacity=".95"/><ellipse transform="translate(226.1,225.2) rotate(332.1) translate(0,-14.2)" rx="3.4" ry="14.2" fill-opacity="0.256" stroke="#000" stroke-width="1.7" stroke-opacity=".95"/><ellipse transform="translate(226.1,225.2) rotate(362.1) translate(0,-14.2)" rx="3.4" ry="14.2" fill-opacity="0.256" stroke="#000" stroke-width="1.7" stroke-opacity=".95"/><ellipse transform="translate(226.1,225.2) rotate(392.1) translate(0,-14.2)" rx="3.4" ry="14.2" fill-opacity="0.256" stroke="#000" stroke-width="1.7" stroke-opacity=".95"/><circle cx="226.1" cy="225.2" r="5.7" fill-opacity=".55"/><ellipse transform="translate(324.8,172.1) rotate(38.0) translate(0,-11.7)" rx="2.8" ry="11.7" fill-opacity="0.256" stroke="#000" stroke-width="1.7" stroke-opacity=".95"/><ellipse transform="translate(324.8,172.1) rotate(68.0) translate(0,-11.7)" rx="2.8" ry="11.7" fill-opacity="0.256" stroke="#000" stroke-width="1.7" stroke-opacity=".95"/><ellipse transform="translate(324.8,172.1) rotate(98.0) translate(0,-11.7)" rx="2.8" ry="11.7" fill-opacity="0.256" stroke="#000" stroke-width="1.7" stroke-opacity=".95"/><ellipse transform="translate(324.8,172.1) rotate(128.0) translate(0,-11.7)" rx="2.8" ry="11.7" fill-opacity="0.256" stroke="#000" stroke-width="1.7" stroke-opacity=".95"/><ellipse transform="translate(324.8,172.1) rotate(158.0) translate(0,-11.7)" rx="2.8" ry="11.7" fill-opacity="0.256" stroke="#000" stroke-width="1.7" stroke-opacity=".95"/><ellipse transform="translate(324.8,172.1) rotate(188.0) translate(0,-11.7)" rx="2.8" ry="11.7" fill-opacity="0.256" stroke="#000" stroke-width="1.7" stroke-opacity=".95"/><ellipse transform="translate(324.8,172.1) rotate(218.0) translate(0,-11.7)" rx="2.8" ry="11.7" fill-opacity="0.256" stroke="#000" stroke-width="1.7" stroke-opacity=".95"/><ellipse transform="translate(324.8,172.1) rotate(248.0) translate(0,-11.7)" rx="2.8" ry="11.7" fill-opacity="0.256" stroke="#000" stroke-width="1.7" stroke-opacity=".95"/><ellipse transform="translate(324.8,172.1) rotate(278.0) translate(0,-11.7)" rx="2.8" ry="11.7" fill-opacity="0.256" stroke="#000" stroke-width="1.7" stroke-opacity=".95"/><ellipse transform="translate(324.8,172.1) rotate(308.0) translate(0,-11.7)" rx="2.8" ry="11.7" fill-opacity="0.256" stroke="#000" stroke-width="1.7" stroke-opacity=".95"/><ellipse transform="translate(324.8,172.1) rotate(338.0) translate(0,-11.7)" rx="2.8" ry="11.7" fill-opacity="0.256" stroke="#000" stroke-width="1.7" stroke-opacity=".95"/><ellipse transform="translate(324.8,172.1) rotate(368.0) translate(0,-11.7)" rx="2.8" ry="11.7" fill-opacity="0.256" stroke="#000" stroke-width="1.7" stroke-opacity=".95"/><circle cx="324.8" cy="172.1" r="4.7" fill-opacity=".55"/><circle transform="translate(432.9,157.7) rotate(0.1) translate(0,-16.8)" r="12.8" fill-opacity=".22" stroke="#000" stroke-width="1.7"/><circle transform="translate(432.9,157.7) rotate(72.1) translate(0,-16.8)" r="12.8" fill-opacity=".22" stroke="#000" stroke-width="1.7"/><circle transform="translate(432.9,157.7) rotate(144.1) translate(0,-16.8)" r="12.8" fill-opacity=".22" stroke="#000" stroke-width="1.7"/><circle transform="translate(432.9,157.7) rotate(216.1) translate(0,-16.8)" r="12.8" fill-opacity=".22" stroke="#000" stroke-width="1.7"/><circle transform="translate(432.9,157.7) rotate(288.1) translate(0,-16.8)" r="12.8" fill-opacity=".22" stroke="#000" stroke-width="1.7"/><circle cx="432.9" cy="157.7" r="4.9" fill-opacity=".4"/><circle cx="442.7" cy="157.7" r="1.5"/><circle cx="437.8" cy="166.1" r="1.5"/><circle cx="428.0" cy="166.1" r="1.5"/><circle cx="423.2" cy="157.7" r="1.5"/><circle cx="428.1" cy="149.2" r="1.5"/><circle cx="437.8" cy="149.3" r="1.5"/><ellipse transform="translate(535.0,200.7) rotate(4.9) translate(0,-10.7)" rx="2.6" ry="10.7" fill-opacity="0.256" stroke="#000" stroke-width="1.7" stroke-opacity=".95"/><ellipse transform="translate(535.0,200.7) rotate(34.9) translate(0,-10.7)" rx="2.6" ry="10.7" fill-opacity="0.256" stroke="#000" stroke-width="1.7" stroke-opacity=".95"/><ellipse transform="translate(535.0,200.7) rotate(64.9) translate(0,-10.7)" rx="2.6" ry="10.7" fill-opacity="0.256" stroke="#000" stroke-width="1.7" stroke-opacity=".95"/><ellipse transform="translate(535.0,200.7) rotate(94.9) translate(0,-10.7)" rx="2.6" ry="10.7" fill-opacity="0.256" stroke="#000" stroke-width="1.7" stroke-opacity=".95"/><ellipse transform="translate(535.0,200.7) rotate(124.9) translate(0,-10.7)" rx="2.6" ry="10.7" fill-opacity="0.256" stroke="#000" stroke-width="1.7" stroke-opacity=".95"/><ellipse transform="translate(535.0,200.7) rotate(154.9) translate(0,-10.7)" rx="2.6" ry="10.7" fill-opacity="0.256" stroke="#000" stroke-width="1.7" stroke-opacity=".95"/><ellipse transform="translate(535.0,200.7) rotate(184.9) translate(0,-10.7)" rx="2.6" ry="10.7" fill-opacity="0.256" stroke="#000" stroke-width="1.7" stroke-opacity=".95"/><ellipse transform="translate(535.0,200.7) rotate(214.9) translate(0,-10.7)" rx="2.6" ry="10.7" fill-opacity="0.256" stroke="#000" stroke-width="1.7" stroke-opacity=".95"/><ellipse transform="translate(535.0,200.7) rotate(244.9) translate(0,-10.7)" rx="2.6" ry="10.7" fill-opacity="0.256" stroke="#000" stroke-width="1.7" stroke-opacity=".95"/><ellipse transform="translate(535.0,200.7) rotate(274.9) translate(0,-10.7)" rx="2.6" ry="10.7" fill-opacity="0.256" stroke="#000" stroke-width="1.7" stroke-opacity=".95"/><ellipse transform="translate(535.0,200.7) rotate(304.9) translate(0,-10.7)" rx="2.6" ry="10.7" fill-opacity="0.256" stroke="#000" stroke-width="1.7" stroke-opacity=".95"/><ellipse transform="translate(535.0,200.7) rotate(334.9) translate(0,-10.7)" rx="2.6" ry="10.7" fill-opacity="0.256" stroke="#000" stroke-width="1.7" stroke-opacity=".95"/><circle cx="535.0" cy="200.7" r="4.3" fill-opacity=".55"/><ellipse transform="translate(628.2,247.3) rotate(36.2) translate(0,-10.4)" rx="2.5" ry="10.4" fill-opacity="0.256" stroke="#000" stroke-width="1.7" stroke-opacity=".95"/><ellipse transform="translate(628.2,247.3) rotate(66.2) translate(0,-10.4)" rx="2.5" ry="10.4" fill-opacity="0.256" stroke="#000" stroke-width="1.7" stroke-opacity=".95"/><ellipse transform="translate(628.2,247.3) rotate(96.2) translate(0,-10.4)" rx="2.5" ry="10.4" fill-opacity="0.256" stroke="#000" stroke-width="1.7" stroke-opacity=".95"/><ellipse transform="translate(628.2,247.3) rotate(126.2) translate(0,-10.4)" rx="2.5" ry="10.4" fill-opacity="0.256" stroke="#000" stroke-width="1.7" stroke-opacity=".95"/><ellipse transform="translate(628.2,247.3) rotate(156.2) translate(0,-10.4)" rx="2.5" ry="10.4" fill-opacity="0.256" stroke="#000" stroke-width="1.7" stroke-opacity=".95"/><ellipse transform="translate(628.2,247.3) rotate(186.2) translate(0,-10.4)" rx="2.5" ry="10.4" fill-opacity="0.256" stroke="#000" stroke-width="1.7" stroke-opacity=".95"/><ellipse transform="translate(628.2,247.3) rotate(216.2) translate(0,-10.4)" rx="2.5" ry="10.4" fill-opacity="0.256" stroke="#000" stroke-width="1.7" stroke-opacity=".95"/><ellipse transform="translate(628.2,247.3) rotate(246.2) translate(0,-10.4)" rx="2.5" ry="10.4" fill-opacity="0.256" stroke="#000" stroke-width="1.7" stroke-opacity=".95"/><ellipse transform="translate(628.2,247.3) rotate(276.2) translate(0,-10.4)" rx="2.5" ry="10.4" fill-opacity="0.256" stroke="#000" stroke-width="1.7" stroke-opacity=".95"/><ellipse transform="translate(628.2,247.3) rotate(306.2) translate(0,-10.4)" rx="2.5" ry="10.4" fill-opacity="0.256" stroke="#000" stroke-width="1.7" stroke-opacity=".95"/><ellipse transform="translate(628.2,247.3) rotate(336.2) translate(0,-10.4)" rx="2.5" ry="10.4" fill-opacity="0.256" stroke="#000" stroke-width="1.7" stroke-opacity=".95"/><ellipse transform="translate(628.2,247.3) rotate(366.2) translate(0,-10.4)" rx="2.5" ry="10.4" fill-opacity="0.256" stroke="#000" stroke-width="1.7" stroke-opacity=".95"/><circle cx="628.2" cy="247.3" r="4.2" fill-opacity=".55"/><circle transform="translate(673.5,358.5) rotate(46.6) translate(0,-13.5)" r="10.3" fill-opacity=".22" stroke="#000" stroke-width="1.7"/><circle transform="translate(673.5,358.5) rotate(118.6) translate(0,-13.5)" r="10.3" fill-opacity=".22" stroke="#000" stroke-width="1.7"/><circle transform="translate(673.5,358.5) rotate(190.6) translate(0,-13.5)" r="10.3" fill-opacity=".22" stroke="#000" stroke-width="1.7"/><circle transform="translate(673.5,358.5) rotate(262.6) translate(0,-13.5)" r="10.3" fill-opacity=".22" stroke="#000" stroke-width="1.7"/><circle transform="translate(673.5,358.5) rotate(334.6) translate(0,-13.5)" r="10.3" fill-opacity=".22" stroke="#000" stroke-width="1.7"/><circle cx="673.5" cy="358.5" r="3.9" fill-opacity=".4"/><circle cx="678.9" cy="364.2" r="1.2"/><circle cx="671.2" cy="366.0" r="1.2"/><circle cx="665.8" cy="360.3" r="1.2"/><circle cx="668.1" cy="352.8" r="1.2"/><circle cx="675.7" cy="351.0" r="1.2"/><circle cx="681.1" cy="356.7" r="1.2"/><ellipse transform="translate(694.7,463.5) rotate(23.7) translate(0,-11.1)" rx="2.7" ry="11.1" fill-opacity="0.256" stroke="#000" stroke-width="1.7" stroke-opacity=".95"/><ellipse transform="translate(694.7,463.5) rotate(53.7) translate(0,-11.1)" rx="2.7" ry="11.1" fill-opacity="0.256" stroke="#000" stroke-width="1.7" stroke-opacity=".95"/><ellipse transform="translate(694.7,463.5) rotate(83.7) translate(0,-11.1)" rx="2.7" ry="11.1" fill-opacity="0.256" stroke="#000" stroke-width="1.7" stroke-opacity=".95"/><ellipse transform="translate(694.7,463.5) rotate(113.7) translate(0,-11.1)" rx="2.7" ry="11.1" fill-opacity="0.256" stroke="#000" stroke-width="1.7" stroke-opacity=".95"/><ellipse transform="translate(694.7,463.5) rotate(143.7) translate(0,-11.1)" rx="2.7" ry="11.1" fill-opacity="0.256" stroke="#000" stroke-width="1.7" stroke-opacity=".95"/><ellipse transform="translate(694.7,463.5) rotate(173.7) translate(0,-11.1)" rx="2.7" ry="11.1" fill-opacity="0.256" stroke="#000" stroke-width="1.7" stroke-opacity=".95"/><ellipse transform="translate(694.7,463.5) rotate(203.7) translate(0,-11.1)" rx="2.7" ry="11.1" fill-opacity="0.256" stroke="#000" stroke-width="1.7" stroke-opacity=".95"/><ellipse transform="translate(694.7,463.5) rotate(233.7) translate(0,-11.1)" rx="2.7" ry="11.1" fill-opacity="0.256" stroke="#000" stroke-width="1.7" stroke-opacity=".95"/><ellipse transform="translate(694.7,463.5) rotate(263.7) translate(0,-11.1)" rx="2.7" ry="11.1" fill-opacity="0.256" stroke="#000" stroke-width="1.7" stroke-opacity=".95"/><ellipse transform="translate(694.7,463.5) rotate(293.7) translate(0,-11.1)" rx="2.7" ry="11.1" fill-opacity="0.256" stroke="#000" stroke-width="1.7" stroke-opacity=".95"/><ellipse transform="translate(694.7,463.5) rotate(323.7) translate(0,-11.1)" rx="2.7" ry="11.1" fill-opacity="0.256" stroke="#000" stroke-width="1.7" stroke-opacity=".95"/><ellipse transform="translate(694.7,463.5) rotate(353.7) translate(0,-11.1)" rx="2.7" ry="11.1" fill-opacity="0.256" stroke="#000" stroke-width="1.7" stroke-opacity=".95"/><circle cx="694.7" cy="463.5" r="4.5" fill-opacity=".55"/><ellipse transform="translate(683.1,573.7) rotate(27.4) translate(0,-14.8)" rx="3.6" ry="14.8" fill-opacity="0.256" stroke="#000" stroke-width="1.7" stroke-opacity=".95"/><ellipse transform="translate(683.1,573.7) rotate(57.4) translate(0,-14.8)" rx="3.6" ry="14.8" fill-opacity="0.256" stroke="#000" stroke-width="1.7" stroke-opacity=".95"/><ellipse transform="translate(683.1,573.7) rotate(87.4) translate(0,-14.8)" rx="3.6" ry="14.8" fill-opacity="0.256" stroke="#000" stroke-width="1.7" stroke-opacity=".95"/><ellipse transform="translate(683.1,573.7) rotate(117.4) translate(0,-14.8)" rx="3.6" ry="14.8" fill-opacity="0.256" stroke="#000" stroke-width="1.7" stroke-opacity=".95"/><ellipse transform="translate(683.1,573.7) rotate(147.4) translate(0,-14.8)" rx="3.6" ry="14.8" fill-opacity="0.256" stroke="#000" stroke-width="1.7" stroke-opacity=".95"/><ellipse transform="translate(683.1,573.7) rotate(177.4) translate(0,-14.8)" rx="3.6" ry="14.8" fill-opacity="0.256" stroke="#000" stroke-width="1.7" stroke-opacity=".95"/><ellipse transform="translate(683.1,573.7) rotate(207.4) translate(0,-14.8)" rx="3.6" ry="14.8" fill-opacity="0.256" stroke="#000" stroke-width="1.7" stroke-opacity=".95"/><ellipse transform="translate(683.1,573.7) rotate(237.4) translate(0,-14.8)" rx="3.6" ry="14.8" fill-opacity="0.256" stroke="#000" stroke-width="1.7" stroke-opacity=".95"/><ellipse transform="translate(683.1,573.7) rotate(267.4) translate(0,-14.8)" rx="3.6" ry="14.8" fill-opacity="0.256" stroke="#000" stroke-width="1.7" stroke-opacity=".95"/><ellipse transform="translate(683.1,573.7) rotate(297.4) translate(0,-14.8)" rx="3.6" ry="14.8" fill-opacity="0.256" stroke="#000" stroke-width="1.7" stroke-opacity=".95"/><ellipse transform="translate(683.1,573.7) rotate(327.4) translate(0,-14.8)" rx="3.6" ry="14.8" fill-opacity="0.256" stroke="#000" stroke-width="1.7" stroke-opacity=".95"/><ellipse transform="translate(683.1,573.7) rotate(357.4) translate(0,-14.8)" rx="3.6" ry="14.8" fill-opacity="0.256" stroke="#000" stroke-width="1.7" stroke-opacity=".95"/><circle cx="683.1" cy="573.7" r="5.9" fill-opacity=".55"/><circle transform="translate(682.0,687.1) rotate(43.5) translate(0,-13.7)" r="10.4" fill-opacity=".22" stroke="#000" stroke-width="1.7"/><circle transform="translate(682.0,687.1) rotate(115.5) translate(0,-13.7)" r="10.4" fill-opacity=".22" stroke="#000" stroke-width="1.7"/><circle transform="translate(682.0,687.1) rotate(187.5) translate(0,-13.7)" r="10.4" fill-opacity=".22" stroke="#000" stroke-width="1.7"/><circle transform="translate(682.0,687.1) rotate(259.5) translate(0,-13.7)" r="10.4" fill-opacity=".22" stroke="#000" stroke-width="1.7"/><circle transform="translate(682.0,687.1) rotate(331.5) translate(0,-13.7)" r="10.4" fill-opacity=".22" stroke="#000" stroke-width="1.7"/><circle cx="682.0" cy="687.1" r="4.0" fill-opacity=".4"/><circle cx="687.8" cy="692.6" r="1.2"/><circle cx="680.1" cy="694.8" r="1.2"/><circle cx="674.4" cy="689.4" r="1.2"/><circle cx="676.2" cy="681.6" r="1.2"/><circle cx="683.9" cy="679.4" r="1.2"/><circle cx="689.6" cy="684.9" r="1.2"/><ellipse transform="translate(699.6,792.5) rotate(44.9) translate(0,-15.4)" rx="3.7" ry="15.4" fill-opacity="0.256" stroke="#000" stroke-width="1.7" stroke-opacity=".95"/><ellipse transform="translate(699.6,792.5) rotate(74.9) translate(0,-15.4)" rx="3.7" ry="15.4" fill-opacity="0.256" stroke="#000" stroke-width="1.7" stroke-opacity=".95"/><ellipse transform="translate(699.6,792.5) rotate(104.9) translate(0,-15.4)" rx="3.7" ry="15.4" fill-opacity="0.256" stroke="#000" stroke-width="1.7" stroke-opacity=".95"/><ellipse transform="translate(699.6,792.5) rotate(134.9) translate(0,-15.4)" rx="3.7" ry="15.4" fill-opacity="0.256" stroke="#000" stroke-width="1.7" stroke-opacity=".95"/><ellipse transform="translate(699.6,792.5) rotate(164.9) translate(0,-15.4)" rx="3.7" ry="15.4" fill-opacity="0.256" stroke="#000" stroke-width="1.7" stroke-opacity=".95"/><ellipse transform="translate(699.6,792.5) rotate(194.9) translate(0,-15.4)" rx="3.7" ry="15.4" fill-opacity="0.256" stroke="#000" stroke-width="1.7" stroke-opacity=".95"/><ellipse transform="translate(699.6,792.5) rotate(224.9) translate(0,-15.4)" rx="3.7" ry="15.4" fill-opacity="0.256" stroke="#000" stroke-width="1.7" stroke-opacity=".95"/><ellipse transform="translate(699.6,792.5) rotate(254.9) translate(0,-15.4)" rx="3.7" ry="15.4" fill-opacity="0.256" stroke="#000" stroke-width="1.7" stroke-opacity=".95"/><ellipse transform="translate(699.6,792.5) rotate(284.9) translate(0,-15.4)" rx="3.7" ry="15.4" fill-opacity="0.256" stroke="#000" stroke-width="1.7" stroke-opacity=".95"/><ellipse transform="translate(699.6,792.5) rotate(314.9) translate(0,-15.4)" rx="3.7" ry="15.4" fill-opacity="0.256" stroke="#000" stroke-width="1.7" stroke-opacity=".95"/><ellipse transform="translate(699.6,792.5) rotate(344.9) translate(0,-15.4)" rx="3.7" ry="15.4" fill-opacity="0.256" stroke="#000" stroke-width="1.7" stroke-opacity=".95"/><ellipse transform="translate(699.6,792.5) rotate(374.9) translate(0,-15.4)" rx="3.7" ry="15.4" fill-opacity="0.256" stroke="#000" stroke-width="1.7" stroke-opacity=".95"/><circle cx="699.6" cy="792.5" r="6.2" fill-opacity=".55"/><ellipse transform="translate(690.8,903.2) rotate(50.6) translate(0,-13.3)" rx="3.2" ry="13.3" fill-opacity="0.256" stroke="#000" stroke-width="1.7" stroke-opacity=".95"/><ellipse transform="translate(690.8,903.2) rotate(80.6) translate(0,-13.3)" rx="3.2" ry="13.3" fill-opacity="0.256" stroke="#000" stroke-width="1.7" stroke-opacity=".95"/><ellipse transform="translate(690.8,903.2) rotate(110.6) translate(0,-13.3)" rx="3.2" ry="13.3" fill-opacity="0.256" stroke="#000" stroke-width="1.7" stroke-opacity=".95"/><ellipse transform="translate(690.8,903.2) rotate(140.6) translate(0,-13.3)" rx="3.2" ry="13.3" fill-opacity="0.256" stroke="#000" stroke-width="1.7" stroke-opacity=".95"/><ellipse transform="translate(690.8,903.2) rotate(170.6) translate(0,-13.3)" rx="3.2" ry="13.3" fill-opacity="0.256" stroke="#000" stroke-width="1.7" stroke-opacity=".95"/><ellipse transform="translate(690.8,903.2) rotate(200.6) translate(0,-13.3)" rx="3.2" ry="13.3" fill-opacity="0.256" stroke="#000" stroke-width="1.7" stroke-opacity=".95"/><ellipse transform="translate(690.8,903.2) rotate(230.6) translate(0,-13.3)" rx="3.2" ry="13.3" fill-opacity="0.256" stroke="#000" stroke-width="1.7" stroke-opacity=".95"/><ellipse transform="translate(690.8,903.2) rotate(260.6) translate(0,-13.3)" rx="3.2" ry="13.3" fill-opacity="0.256" stroke="#000" stroke-width="1.7" stroke-opacity=".95"/><ellipse transform="translate(690.8,903.2) rotate(290.6) translate(0,-13.3)" rx="3.2" ry="13.3" fill-opacity="0.256" stroke="#000" stroke-width="1.7" stroke-opacity=".95"/><ellipse transform="translate(690.8,903.2) rotate(320.6) translate(0,-13.3)" rx="3.2" ry="13.3" fill-opacity="0.256" stroke="#000" stroke-width="1.7" stroke-opacity=".95"/><ellipse transform="translate(690.8,903.2) rotate(350.6) translate(0,-13.3)" rx="3.2" ry="13.3" fill-opacity="0.256" stroke="#000" stroke-width="1.7" stroke-opacity=".95"/><ellipse transform="translate(690.8,903.2) rotate(380.6) translate(0,-13.3)" rx="3.2" ry="13.3" fill-opacity="0.256" stroke="#000" stroke-width="1.7" stroke-opacity=".95"/><circle cx="690.8" cy="903.2" r="5.3" fill-opacity=".55"/><circle transform="translate(690.5,1013.2) rotate(17.6) translate(0,-14.3)" r="10.9" fill-opacity=".22" stroke="#000" stroke-width="1.7"/><circle transform="translate(690.5,1013.2) rotate(89.6) translate(0,-14.3)" r="10.9" fill-opacity=".22" stroke="#000" stroke-width="1.7"/><circle transform="translate(690.5,1013.2) rotate(161.6) translate(0,-14.3)" r="10.9" fill-opacity=".22" stroke="#000" stroke-width="1.7"/><circle transform="translate(690.5,1013.2) rotate(233.6) translate(0,-14.3)" r="10.9" fill-opacity=".22" stroke="#000" stroke-width="1.7"/><circle transform="translate(690.5,1013.2) rotate(305.6) translate(0,-14.3)" r="10.9" fill-opacity=".22" stroke="#000" stroke-width="1.7"/><circle cx="690.5" cy="1013.2" r="4.2" fill-opacity=".4"/><circle cx="698.5" cy="1015.7" r="1.3"/><circle cx="692.3" cy="1021.4" r="1.3"/><circle cx="684.4" cy="1018.8" r="1.3"/><circle cx="682.6" cy="1010.7" r="1.3"/><circle cx="688.7" cy="1005.1" r="1.3"/><circle cx="696.7" cy="1007.6" r="1.3"/><ellipse transform="translate(330.0,166.0) rotate(38.6) translate(0,-19.6)" rx="4.7" ry="19.6" fill-opacity="0.256" stroke="#000" stroke-width="1.7" stroke-opacity=".95"/><ellipse transform="translate(330.0,166.0) rotate(68.6) translate(0,-19.6)" rx="4.7" ry="19.6" fill-opacity="0.256" stroke="#000" stroke-width="1.7" stroke-opacity=".95"/><ellipse transform="translate(330.0,166.0) rotate(98.6) translate(0,-19.6)" rx="4.7" ry="19.6" fill-opacity="0.256" stroke="#000" stroke-width="1.7" stroke-opacity=".95"/><ellipse transform="translate(330.0,166.0) rotate(128.6) translate(0,-19.6)" rx="4.7" ry="19.6" fill-opacity="0.256" stroke="#000" stroke-width="1.7" stroke-opacity=".95"/><ellipse transform="translate(330.0,166.0) rotate(158.6) translate(0,-19.6)" rx="4.7" ry="19.6" fill-opacity="0.256" stroke="#000" stroke-width="1.7" stroke-opacity=".95"/><ellipse transform="translate(330.0,166.0) rotate(188.6) translate(0,-19.6)" rx="4.7" ry="19.6" fill-opacity="0.256" stroke="#000" stroke-width="1.7" stroke-opacity=".95"/><ellipse transform="translate(330.0,166.0) rotate(218.6) translate(0,-19.6)" rx="4.7" ry="19.6" fill-opacity="0.256" stroke="#000" stroke-width="1.7" stroke-opacity=".95"/><ellipse transform="translate(330.0,166.0) rotate(248.6) translate(0,-19.6)" rx="4.7" ry="19.6" fill-opacity="0.256" stroke="#000" stroke-width="1.7" stroke-opacity=".95"/><ellipse transform="translate(330.0,166.0) rotate(278.6) translate(0,-19.6)" rx="4.7" ry="19.6" fill-opacity="0.256" stroke="#000" stroke-width="1.7" stroke-opacity=".95"/><ellipse transform="translate(330.0,166.0) rotate(308.6) translate(0,-19.6)" rx="4.7" ry="19.6" fill-opacity="0.256" stroke="#000" stroke-width="1.7" stroke-opacity=".95"/><ellipse transform="translate(330.0,166.0) rotate(338.6) translate(0,-19.6)" rx="4.7" ry="19.6" fill-opacity="0.256" stroke="#000" stroke-width="1.7" stroke-opacity=".95"/><ellipse transform="translate(330.0,166.0) rotate(368.6) translate(0,-19.6)" rx="4.7" ry="19.6" fill-opacity="0.256" stroke="#000" stroke-width="1.7" stroke-opacity=".95"/><circle cx="330.0" cy="166.0" r="7.8" fill-opacity=".55"/><ellipse transform="translate(400.0,142.0) rotate(50.1) translate(0,-24.5)" rx="5.9" ry="24.5" fill-opacity="0.256" stroke="#000" stroke-width="1.7" stroke-opacity=".95"/><ellipse transform="translate(400.0,142.0) rotate(80.1) translate(0,-24.5)" rx="5.9" ry="24.5" fill-opacity="0.256" stroke="#000" stroke-width="1.7" stroke-opacity=".95"/><ellipse transform="translate(400.0,142.0) rotate(110.1) translate(0,-24.5)" rx="5.9" ry="24.5" fill-opacity="0.256" stroke="#000" stroke-width="1.7" stroke-opacity=".95"/><ellipse transform="translate(400.0,142.0) rotate(140.1) translate(0,-24.5)" rx="5.9" ry="24.5" fill-opacity="0.256" stroke="#000" stroke-width="1.7" stroke-opacity=".95"/><ellipse transform="translate(400.0,142.0) rotate(170.1) translate(0,-24.5)" rx="5.9" ry="24.5" fill-opacity="0.256" stroke="#000" stroke-width="1.7" stroke-opacity=".95"/><ellipse transform="translate(400.0,142.0) rotate(200.1) translate(0,-24.5)" rx="5.9" ry="24.5" fill-opacity="0.256" stroke="#000" stroke-width="1.7" stroke-opacity=".95"/><ellipse transform="translate(400.0,142.0) rotate(230.1) translate(0,-24.5)" rx="5.9" ry="24.5" fill-opacity="0.256" stroke="#000" stroke-width="1.7" stroke-opacity=".95"/><ellipse transform="translate(400.0,142.0) rotate(260.1) translate(0,-24.5)" rx="5.9" ry="24.5" fill-opacity="0.256" stroke="#000" stroke-width="1.7" stroke-opacity=".95"/><ellipse transform="translate(400.0,142.0) rotate(290.1) translate(0,-24.5)" rx="5.9" ry="24.5" fill-opacity="0.256" stroke="#000" stroke-width="1.7" stroke-opacity=".95"/><ellipse transform="translate(400.0,142.0) rotate(320.1) translate(0,-24.5)" rx="5.9" ry="24.5" fill-opacity="0.256" stroke="#000" stroke-width="1.7" stroke-opacity=".95"/><ellipse transform="translate(400.0,142.0) rotate(350.1) translate(0,-24.5)" rx="5.9" ry="24.5" fill-opacity="0.256" stroke="#000" stroke-width="1.7" stroke-opacity=".95"/><ellipse transform="translate(400.0,142.0) rotate(380.1) translate(0,-24.5)" rx="5.9" ry="24.5" fill-opacity="0.256" stroke="#000" stroke-width="1.7" stroke-opacity=".95"/><circle cx="400.0" cy="142.0" r="9.8" fill-opacity=".55"/><ellipse transform="translate(470.0,166.0) rotate(5.2) translate(0,-19.6)" rx="4.7" ry="19.6" fill-opacity="0.256" stroke="#000" stroke-width="1.7" stroke-opacity=".95"/><ellipse transform="translate(470.0,166.0) rotate(35.2) translate(0,-19.6)" rx="4.7" ry="19.6" fill-opacity="0.256" stroke="#000" stroke-width="1.7" stroke-opacity=".95"/><ellipse transform="translate(470.0,166.0) rotate(65.2) translate(0,-19.6)" rx="4.7" ry="19.6" fill-opacity="0.256" stroke="#000" stroke-width="1.7" stroke-opacity=".95"/><ellipse transform="translate(470.0,166.0) rotate(95.2) translate(0,-19.6)" rx="4.7" ry="19.6" fill-opacity="0.256" stroke="#000" stroke-width="1.7" stroke-opacity=".95"/><ellipse transform="translate(470.0,166.0) rotate(125.2) translate(0,-19.6)" rx="4.7" ry="19.6" fill-opacity="0.256" stroke="#000" stroke-width="1.7" stroke-opacity=".95"/><ellipse transform="translate(470.0,166.0) rotate(155.2) translate(0,-19.6)" rx="4.7" ry="19.6" fill-opacity="0.256" stroke="#000" stroke-width="1.7" stroke-opacity=".95"/><ellipse transform="translate(470.0,166.0) rotate(185.2) translate(0,-19.6)" rx="4.7" ry="19.6" fill-opacity="0.256" stroke="#000" stroke-width="1.7" stroke-opacity=".95"/><ellipse transform="translate(470.0,166.0) rotate(215.2) translate(0,-19.6)" rx="4.7" ry="19.6" fill-opacity="0.256" stroke="#000" stroke-width="1.7" stroke-opacity=".95"/><ellipse transform="translate(470.0,166.0) rotate(245.2) translate(0,-19.6)" rx="4.7" ry="19.6" fill-opacity="0.256" stroke="#000" stroke-width="1.7" stroke-opacity=".95"/><ellipse transform="translate(470.0,166.0) rotate(275.2) translate(0,-19.6)" rx="4.7" ry="19.6" fill-opacity="0.256" stroke="#000" stroke-width="1.7" stroke-opacity=".95"/><ellipse transform="translate(470.0,166.0) rotate(305.2) translate(0,-19.6)" rx="4.7" ry="19.6" fill-opacity="0.256" stroke="#000" stroke-width="1.7" stroke-opacity=".95"/><ellipse transform="translate(470.0,166.0) rotate(335.2) translate(0,-19.6)" rx="4.7" ry="19.6" fill-opacity="0.256" stroke="#000" stroke-width="1.7" stroke-opacity=".95"/><circle cx="470.0" cy="166.0" r="7.8" fill-opacity=".55"/><ellipse transform="translate(270.0,216.0) rotate(30.6) translate(0,-14.7)" rx="3.5" ry="14.7" fill-opacity="0.256" stroke="#000" stroke-width="1.7" stroke-opacity=".95"/><ellipse transform="translate(270.0,216.0) rotate(60.6) translate(0,-14.7)" rx="3.5" ry="14.7" fill-opacity="0.256" stroke="#000" stroke-width="1.7" stroke-opacity=".95"/><ellipse transform="translate(270.0,216.0) rotate(90.6) translate(0,-14.7)" rx="3.5" ry="14.7" fill-opacity="0.256" stroke="#000" stroke-width="1.7" stroke-opacity=".95"/><ellipse transform="translate(270.0,216.0) rotate(120.6) translate(0,-14.7)" rx="3.5" ry="14.7" fill-opacity="0.256" stroke="#000" stroke-width="1.7" stroke-opacity=".95"/><ellipse transform="translate(270.0,216.0) rotate(150.6) translate(0,-14.7)" rx="3.5" ry="14.7" fill-opacity="0.256" stroke="#000" stroke-width="1.7" stroke-opacity=".95"/><ellipse transform="translate(270.0,216.0) rotate(180.6) translate(0,-14.7)" rx="3.5" ry="14.7" fill-opacity="0.256" stroke="#000" stroke-width="1.7" stroke-opacity=".95"/><ellipse transform="translate(270.0,216.0) rotate(210.6) translate(0,-14.7)" rx="3.5" ry="14.7" fill-opacity="0.256" stroke="#000" stroke-width="1.7" stroke-opacity=".95"/><ellipse transform="translate(270.0,216.0) rotate(240.6) translate(0,-14.7)" rx="3.5" ry="14.7" fill-opacity="0.256" stroke="#000" stroke-width="1.7" stroke-opacity=".95"/><ellipse transform="translate(270.0,216.0) rotate(270.6) translate(0,-14.7)" rx="3.5" ry="14.7" fill-opacity="0.256" stroke="#000" stroke-width="1.7" stroke-opacity=".95"/><ellipse transform="translate(270.0,216.0) rotate(300.6) translate(0,-14.7)" rx="3.5" ry="14.7" fill-opacity="0.256" stroke="#000" stroke-width="1.7" stroke-opacity=".95"/><ellipse transform="translate(270.0,216.0) rotate(330.6) translate(0,-14.7)" rx="3.5" ry="14.7" fill-opacity="0.256" stroke="#000" stroke-width="1.7" stroke-opacity=".95"/><ellipse transform="translate(270.0,216.0) rotate(360.6) translate(0,-14.7)" rx="3.5" ry="14.7" fill-opacity="0.256" stroke="#000" stroke-width="1.7" stroke-opacity=".95"/><circle cx="270.0" cy="216.0" r="5.9" fill-opacity=".55"/><ellipse transform="translate(530.0,216.0) rotate(30.7) translate(0,-14.7)" rx="3.5" ry="14.7" fill-opacity="0.256" stroke="#000" stroke-width="1.7" stroke-opacity=".95"/><ellipse transform="translate(530.0,216.0) rotate(60.7) translate(0,-14.7)" rx="3.5" ry="14.7" fill-opacity="0.256" stroke="#000" stroke-width="1.7" stroke-opacity=".95"/><ellipse transform="translate(530.0,216.0) rotate(90.7) translate(0,-14.7)" rx="3.5" ry="14.7" fill-opacity="0.256" stroke="#000" stroke-width="1.7" stroke-opacity=".95"/><ellipse transform="translate(530.0,216.0) rotate(120.7) translate(0,-14.7)" rx="3.5" ry="14.7" fill-opacity="0.256" stroke="#000" stroke-width="1.7" stroke-opacity=".95"/><ellipse transform="translate(530.0,216.0) rotate(150.7) translate(0,-14.7)" rx="3.5" ry="14.7" fill-opacity="0.256" stroke="#000" stroke-width="1.7" stroke-opacity=".95"/><ellipse transform="translate(530.0,216.0) rotate(180.7) translate(0,-14.7)" rx="3.5" ry="14.7" fill-opacity="0.256" stroke="#000" stroke-width="1.7" stroke-opacity=".95"/><ellipse transform="translate(530.0,216.0) rotate(210.7) translate(0,-14.7)" rx="3.5" ry="14.7" fill-opacity="0.256" stroke="#000" stroke-width="1.7" stroke-opacity=".95"/><ellipse transform="translate(530.0,216.0) rotate(240.7) translate(0,-14.7)" rx="3.5" ry="14.7" fill-opacity="0.256" stroke="#000" stroke-width="1.7" stroke-opacity=".95"/><ellipse transform="translate(530.0,216.0) rotate(270.7) translate(0,-14.7)" rx="3.5" ry="14.7" fill-opacity="0.256" stroke="#000" stroke-width="1.7" stroke-opacity=".95"/><ellipse transform="translate(530.0,216.0) rotate(300.7) translate(0,-14.7)" rx="3.5" ry="14.7" fill-opacity="0.256" stroke="#000" stroke-width="1.7" stroke-opacity=".95"/><ellipse transform="translate(530.0,216.0) rotate(330.7) translate(0,-14.7)" rx="3.5" ry="14.7" fill-opacity="0.256" stroke="#000" stroke-width="1.7" stroke-opacity=".95"/><ellipse transform="translate(530.0,216.0) rotate(360.7) translate(0,-14.7)" rx="3.5" ry="14.7" fill-opacity="0.256" stroke="#000" stroke-width="1.7" stroke-opacity=".95"/><circle cx="530.0" cy="216.0" r="5.9" fill-opacity=".55"/></svg>
